<svg width="4096" height="780" viewBox="0 0 4096 780" fill="none" xmlns="http://www.w3.org/2000/svg">
<path fill-rule="evenodd" clip-rule="evenodd" d="M557.028 0C570.205 0 578.111 2.635 579.692 7.905C581.273 12.122 582.328 35.838 582.328 60.608C582.328 93.284 583.909 105.405 588.653 105.405C592.342 104.878 608.682 96.973 624.494 86.96C640.306 76.946 657.173 69.04 661.39 69.04C665.606 69.04 673.512 72.73 678.783 78C684.054 82.743 687.744 91.703 687.744 97.5C687.744 103.824 678.783 113.311 665.079 121.743C652.956 129.122 629.238 142.824 582.328 168.649V213.446C582.328 238.216 583.382 258.243 584.963 258.243C586.544 258.243 609.736 246.122 636.09 230.838C662.971 216.081 693.541 198.162 703.556 191.311C713.57 184.459 726.22 179.189 730.964 179.189C736.762 179.189 743.614 186.568 747.831 196.581C753.629 209.23 754.156 215.027 749.412 220.824C745.722 224.514 714.625 244.014 679.837 263.514C645.05 283.541 588.125 316.216 553.338 336.77C518.551 357.324 479.02 379.986 440.016 400.541L442.651 534.405L487.453 560.757C512.226 575.514 567.569 607.662 610.263 632.432C664.025 663.527 687.744 679.865 687.744 686.716C687.744 691.459 682.473 701.473 664.025 722.027L628.184 700.946C608.682 689.351 590.234 679.865 587.598 679.865C584.436 679.865 581.8 700.419 579.692 777.365L558.609 778.946C540.688 780.527 536.999 778.946 533.836 768.405C531.728 761.554 529.62 730.987 529.62 642.973L485.872 619.257C462.153 606.081 442.124 595.014 441.07 595.541C440.543 595.541 440.016 637.176 440.016 780H392.579V411.081L359.373 392.108C341.452 381.568 316.152 366.811 279.257 346.784L258.173 357.851C246.578 364.176 202.83 388.946 160.664 413.716C118.497 437.959 70.5329 465.365 53.6659 474.324C37.3259 482.757 20.9869 489.081 18.3519 487.5C15.1899 485.919 9.39193 478.541 5.17493 470.635C-1.67707 457.459 -1.67707 454.824 6.75593 447.446C11.4999 442.703 21.5139 435.851 28.8939 432.162C36.2729 428.473 53.6659 417.932 67.3699 408.973C81.0739 400.014 92.1429 392.108 92.1429 391.581C92.1429 390.527 73.6949 379.459 51.0309 366.811C28.8939 354.162 7.28293 339.932 3.59393 335.189C-1.67707 328.338 -1.15007 324.122 5.17493 313.581C9.39193 306.203 17.8249 300.405 23.6229 300.405C29.4209 300.405 58.9369 314.635 144.851 363.649L166.989 351C179.638 344.149 197.559 334.135 206.52 328.865C216.007 323.068 223.913 317.797 223.913 316.216C223.913 314.635 216.007 308.838 206.52 303.568C197.559 297.77 180.166 288.284 168.57 281.959C156.974 276.162 130.62 261.405 110.591 249.284C90.5609 237.689 72.1139 223.986 69.4789 219.243C67.3699 214.5 67.8969 205.014 71.0599 197.635C73.6949 190.257 78.4399 183.405 81.6019 181.824C84.2369 180.243 114.808 195 148.541 214.5C182.801 234 234.455 262.986 263.444 279.324C292.434 296.189 335.127 320.432 358.319 333.608C381.51 347.311 404.175 358.378 408.391 358.378C412.608 358.378 441.597 343.622 530.147 292.5L529.093 149.676C528.565 71.149 529.62 5.27 532.255 3.689C534.89 1.581 545.959 0 557.028 0ZM305.611 2.635L308.246 147.568L327.748 158.108C338.817 163.905 354.629 173.392 363.589 179.189C372.55 184.459 382.564 189.203 385.727 189.203C390.998 189.73 392.579 167.595 392.579 0L437.381 2.635L438.435 134.392C439.489 207.122 438.435 268.257 435.799 270.365C433.691 273 425.258 270.892 416.297 266.676C407.337 261.932 396.795 255.608 392.579 252.973C388.362 249.811 357.264 231.892 324.058 212.392C290.852 193.419 234.455 160.743 198.613 140.189C161.191 118.054 134.31 99.609 134.31 94.865C134.31 90.649 137.999 81.689 142.216 74.838C146.432 68.513 153.812 63.243 158.028 63.243C162.245 63.243 185.963 74.838 210.736 89.595C235.509 103.824 256.592 115.946 258.173 115.946C259.755 115.946 260.282 91.176 259.755 61.662C259.228 31.622 261.336 5.27 263.444 3.162C266.08 1.054 276.621 0 305.611 2.635ZM1275.44 171.284L1289.67 200.27C1297.58 216.081 1311.28 247.176 1320.24 268.784C1329.2 290.392 1339.21 313.054 1342.38 318.851C1345.54 324.649 1353.45 343.622 1360.3 361.014C1366.62 378.405 1381.91 413.189 1393.5 438.486C1405.63 464.311 1415.11 485.919 1415.11 487.5C1415.11 489.081 1422.49 505.946 1431.45 525.446C1440.94 545.473 1451.48 569.716 1455.17 579.73C1459.92 593.432 1460.44 599.757 1455.7 604.5C1452.01 608.716 1435.67 611.351 1412.48 611.351C1388.76 611.878 1373.47 609.243 1369.26 605.027C1366.1 601.338 1349.23 564.973 1331.84 524.392C1314.44 483.811 1285.45 417.405 1267.53 376.824C1249.61 336.243 1233.27 301.459 1231.16 299.351C1229.58 297.243 1221.15 309.892 1212.72 328.338C1204.28 346.257 1190.05 377.878 1180.56 397.905C1171.08 417.932 1151.05 464.311 1136.29 500.676C1121.53 537.041 1103.61 576.041 1085.16 608.716L1043.52 610.297C1020.33 610.824 999.775 609.77 997.14 607.662C995.031 605.027 997.14 593.959 1001.88 582.365C1006.63 570.77 1018.75 542.311 1028.76 519.122C1039.31 495.932 1051.96 467.473 1056.7 455.878C1061.97 444.284 1088.85 381.568 1117.31 316.216C1145.25 250.865 1171.6 192.365 1175.82 186.041C1180.56 179.716 1189 173.392 1195.32 172.338C1201.65 170.757 1222.2 170.23 1275.44 171.284ZM1562.7 168.649C1583.25 168.649 1599.59 171.284 1603.81 174.973C1608.55 180.243 1610.13 220.824 1610.13 516.487H1776.16C1916.89 516.487 1943.25 517.541 1950.1 524.392C1955.37 529.662 1958.01 542.311 1958.01 561.284C1958.01 577.095 1955.37 595.014 1952.74 600.811C1947.46 610.824 1942.19 611.351 1739.27 611.351C1624.89 611.351 1527.38 610.297 1523.17 608.716C1516.31 606.608 1515.26 577.095 1514.21 393.689C1513.15 217.135 1514.2 180.243 1520.53 174.973C1524.75 171.284 1543.19 168.649 1562.7 168.649ZM2076.6 168.649C2090.83 168.649 2109.81 170.757 2118.77 173.919C2133 178.662 2143.01 196.054 2216.28 339.932C2261.08 428.473 2299.03 500.676 2300.61 501.203C2302.19 501.203 2340.14 428.473 2384.94 339.932C2445.03 221.351 2469.8 177.081 2478.23 173.392C2485.09 170.757 2500.9 168.649 2514.08 168.649C2527.25 168.649 2543.59 171.284 2564.15 179.189L2561.51 608.716L2524.62 610.297C2494.57 611.878 2486.14 610.297 2479.82 602.919C2473.49 595.541 2471.38 571.824 2466.64 387.365L2422.36 471.689C2397.59 518.068 2372.29 566.554 2365.44 579.73C2358.59 592.905 2350.15 605.027 2346.46 607.135C2343.3 609.243 2323.27 611.351 2303.24 611.351C2275.31 611.878 2263.71 609.243 2254.75 602.392C2247.9 597.122 2224.18 557.068 2201.52 513.851C2178.85 470.108 2155.13 423.73 2148.81 409.5C2142.48 395.797 2135.63 384.73 2133 384.73C2130.89 384.73 2129.31 429 2128.78 483.811C2128.78 538.095 2126.67 588.689 2125.09 596.595C2121.4 610.824 2120.35 611.351 2085.56 611.351C2063.95 611.351 2047.61 608.716 2043.39 605.027C2038.65 599.757 2036.54 549.689 2036.01 390C2034.96 216.608 2036.01 180.243 2042.34 174.973C2046.56 171.284 2061.84 168.649 2076.6 168.649ZM2859.31 170.757C2889.36 172.865 2895.15 174.446 2904.11 187.095C2909.91 195 2924.67 225.568 2937.32 254.554C2949.44 284.068 2963.15 315.162 2966.84 324.122C2971.05 333.081 2988.97 374.189 3006.9 416.351C3024.82 458.514 3042.74 499.622 3047.48 508.581C3051.7 517.541 3061.71 541.784 3070.67 562.338C3079.11 583.419 3084.9 603.446 3083.32 606.081C3081.74 608.716 3063.29 611.351 3042.21 611.351C3019.55 611.351 3000.57 608.716 2995.3 605.027C2990.03 601.338 2968.95 559.176 2948.39 511.216C2927.83 463.257 2904.12 409.5 2895.68 391.054C2887.25 373.135 2880.4 357.324 2880.4 355.743C2880.4 354.162 2874.6 339.405 2867.22 322.541C2859.31 306.203 2851.93 294.608 2849.83 297.77C2847.19 300.405 2837.7 322.014 2827.69 345.203C2818.2 368.392 2803.97 401.595 2796.06 418.986C2788.16 436.378 2773.93 468.527 2764.44 490.135C2755.48 511.743 2742.3 542.311 2734.92 557.068C2728.07 572.351 2722.27 586.581 2722.27 588.689C2722.8 591.324 2718.58 597.122 2713.31 602.392C2705.41 609.77 2695.92 611.351 2664.29 610.297C2629.51 608.716 2624.76 607.662 2623.18 598.176C2622.13 592.378 2630.03 569.189 2640.05 546.527C2650.59 524.392 2659.02 504.365 2659.02 501.73C2659.02 499.622 2662.19 492.243 2665.88 484.865C2669.56 477.486 2690.12 431.108 2711.2 382.095C2732.29 333.081 2753.9 283.014 2759.17 271.419C2764.44 259.824 2776.56 234 2785.52 213.446C2796.59 189.73 2806.61 175.5 2813.98 172.865C2819.78 170.757 2840.34 169.703 2859.31 170.757ZM3360.04 169.176C3519.74 168.649 3569.82 170.23 3575.09 174.973C3579.3 179.189 3581.94 194.473 3581.41 214.5C3581.41 232.946 3579.3 252.446 3576.14 258.243C3572.98 264.041 3537.14 297.77 3495.5 333.081C3454.39 368.392 3403.26 412.662 3381.65 431.635C3360.04 450.608 3330 477.486 3286.25 516.487H3576.14L3579.3 528.081C3580.89 534.932 3581.41 555.487 3578.78 608.716H3141.3L3138.67 521.757L3166.07 495.932C3181.36 481.703 3218.78 449.554 3249.35 424.257C3279.92 398.432 3321.04 363.649 3341.06 345.73C3361.62 327.811 3387.45 304.622 3399.04 294.081C3411.17 283.014 3422.23 274.054 3424.34 274.054C3426.98 274.054 3428.56 271.419 3428.56 268.784C3428.56 265.622 3376.38 262.986 3141.3 260.878L3138.67 219.243C3136.56 186.041 3137.61 176.554 3143.94 173.392C3148.15 171.284 3245.66 169.176 3360.04 169.176ZM3873.94 171.284C3893.97 172.865 3913.47 177.081 3916.11 180.77C3919.27 184.459 3928.23 201.324 3935.61 218.716C3943.52 236.108 3958.27 270.365 3968.82 295.135C3979.36 319.905 3992.54 349.946 3998.33 362.068C4003.6 374.716 4008.35 385.784 4008.35 387.365C4008.35 388.946 4016.78 408.446 4027.32 430.581C4037.86 453.243 4057.89 500.149 4072.65 534.932C4086.88 569.716 4097.42 601.338 4095.84 604.5C4093.73 609.243 4080.03 611.351 4055.78 611.351C4035.76 611.351 4014.15 608.716 4008.35 606.081C4002.55 603.446 3997.81 598.176 3997.81 595.541C3997.81 592.905 3992.01 577.622 3985.16 562.338C3978.3 547.581 3956.69 498.041 3937.19 453.243C3917.16 408.446 3896.08 359.432 3890.28 345.203C3883.96 330.446 3876.05 314.108 3866.56 297.77L3859.18 308.311C3854.97 314.108 3848.12 327.284 3844.95 337.297C3841.26 347.311 3832.83 367.338 3826.51 382.095C3819.65 396.324 3799.1 443.757 3780.12 487.5C3761.67 530.716 3741.65 576.041 3726.36 608.716L3634.12 611.351L3637.28 591.324C3638.86 580.784 3642.03 569.189 3644.66 566.554C3646.77 563.919 3660.47 532.824 3675.23 498.041C3689.99 463.257 3705.8 427.946 3710.02 418.986C3714.76 410.027 3718.45 401.595 3718.45 398.959C3718.45 396.851 3724.25 382.622 3731.63 367.338C3738.48 352.581 3759.57 304.095 3778.01 260.878C3802.26 203.959 3815.44 179.716 3824.4 174.973C3833.36 170.23 3848.64 169.176 3873.94 171.284ZM797.903 296.189C802.12 297.243 809.499 303.568 813.716 310.946C817.932 318.324 820.041 327.811 818.459 332.027C816.878 336.243 797.376 350.473 775.239 363.649C753.102 376.824 735.181 388.419 735.181 390C735.181 391.581 753.629 403.703 775.766 416.878C806.864 434.797 817.405 443.757 818.459 453.77C819.514 461.676 815.824 470.108 809.499 475.378C798.957 484.338 797.376 484.338 781.037 476.432C772.076 471.689 746.777 457.459 725.693 444.811C705.137 432.162 683 421.622 677.202 421.622C671.404 421.622 665.606 424.257 664.025 426.892C662.444 429.527 647.158 440.068 629.765 449.027C611.844 458.513 597.613 468 598.14 470.108C598.14 472.743 609.209 480.122 622.913 487.5C637.144 494.878 655.592 504.892 664.025 510.162C672.985 514.905 695.65 528.608 715.679 540.203C742.56 556.541 750.993 563.919 750.993 572.878C750.993 579.73 746.249 589.743 729.91 606.081L699.339 589.216C683 580.257 665.606 569.716 661.39 566.554C657.173 563.392 628.711 546.527 598.14 530.189C567.569 513.324 533.836 493.297 522.768 485.392C511.699 478.014 502.739 470.635 502.739 469.054C502.739 467.473 514.334 459.041 528.038 450.081C541.742 441.122 604.465 404.757 666.66 368.919C728.856 333.608 782.091 302.514 785.253 299.878C787.889 297.243 793.687 295.662 797.903 296.189ZM301.394 426.892C307.192 426.892 308.246 460.095 308.246 780L263.444 777.365L261.863 720.446C261.336 689.351 259.755 664.054 258.173 664.054C256.592 664.054 234.982 676.176 209.155 691.459C183.855 706.216 160.664 718.865 158.028 718.865C155.393 719.392 152.23 716.757 151.703 714.122C151.176 711.487 148.014 707.27 143.797 705.162C140.107 703.054 136.945 695.676 136.945 689.351C136.945 682.5 142.743 673.013 150.122 667.743C157.501 662.473 185.436 646.135 261.336 603.446L260.809 557.068C260.809 531.77 258.173 510.162 255.538 508.581C252.903 507 249.213 508.581 247.632 511.216C246.051 513.851 225.494 527.554 201.249 540.73C177.53 553.905 144.324 572.878 127.458 582.892C111.118 592.905 94.7779 600.811 92.1429 600.811C89.5079 600.811 82.1289 596.068 76.3309 590.27C70.5329 584.473 65.2619 575.513 65.2619 570.243C64.7349 562.865 85.2919 548.635 145.378 513.851C190.18 488.554 233.401 463.784 242.361 459.041C250.794 454.297 266.08 445.338 276.094 438.486C286.109 432.162 297.177 426.892 301.394 426.892Z" fill="#E8B411" fill-opacity="0.84"/>
</svg>
